<svg width="175" height="181" viewBox="0 0 175 181" fill="none" xmlns="http://www.w3.org/2000/svg">
<path fill-rule="evenodd" clip-rule="evenodd" d="M15.5545 151.21C9.1529 149.495 5.35391 142.915 7.06921 136.513L32.8378 40.3436C34.5531 33.942 41.1331 30.143 47.5347 31.8583L73.8211 38.9017C75.595 39.3771 77.2848 37.8269 77.3063 35.9905C77.3261 34.3037 77.555 32.5919 78.0117 30.8875C80.9554 19.9015 92.2477 13.3819 103.234 16.3256C114.22 19.2693 120.739 30.5615 117.796 41.5476C117.339 43.252 116.681 44.8489 115.855 46.3196C114.956 47.9208 115.644 50.1081 117.418 50.5834L143.704 57.6269C150.106 59.3422 153.905 65.9222 152.19 72.3238L145.146 98.6099C144.671 100.384 142.484 101.072 140.882 100.173C139.412 99.3463 137.815 98.6887 136.11 98.232C125.124 95.2883 113.832 101.808 110.888 112.794C107.945 123.78 114.464 135.072 125.45 138.016C127.155 138.473 128.866 138.702 130.553 138.721C132.39 138.743 133.94 140.433 133.464 142.207L126.421 168.493C124.706 174.895 118.126 178.694 111.724 176.979L15.5545 151.21Z" fill="#3278DE"/>
<circle cx="51.5" cy="87.4089" r="4.5" fill="#0B2448"/>
<circle cx="78.5" cy="87.4089" r="4.5" fill="#0B2448"/>
<path d="M64 96.9089C64.5563 101.978 66.1583 105.909 72 105.909" stroke="#0B2448" stroke-width="6" stroke-linecap="round"/>
<path d="M68 123.909C74.7686 123.909 81.6132 123.209 86.64 118.131C88.0726 116.684 89.2587 114.547 90.34 112.818C92.1542 109.917 93.5447 106.849 95 103.909" stroke="#0B2448" stroke-width="6" stroke-linecap="round"/>
<path d="M37.0037 76.9032C28.634 73.0429 19.3144 65.3839 14.2578 57.9331C11.1441 53.345 8.98203 47.7961 7.18799 42.5944C5.77206 38.489 5.90452 33.985 4.50666 29.932" stroke="#3278DE" stroke-width="8" stroke-linecap="round"/>
<path d="M124.747 86.1113C128.339 86.4918 132.333 85.0705 135.757 84.1945C139.541 83.2262 143.077 82.3808 146.312 80.0963C152.994 75.3792 159.281 69.0309 163.283 61.8105C166.41 56.1685 169.068 50.0889 170.253 43.7066" stroke="#3278DE" stroke-width="8" stroke-linecap="round"/>
</svg>
