<svg width="28" height="49" viewBox="0 0 28 49" fill="none" xmlns="http://www.w3.org/2000/svg">
<path fill-rule="evenodd" clip-rule="evenodd" d="M0.354366 47.8736C0.220892 48.1153 0.300999 48.4323 0.53329 48.5816C0.765581 48.731 1.06209 48.656 1.19557 48.4143L13.6938 25.7779L26.1979 48.4143C26.3314 48.6561 26.628 48.731 26.8603 48.5817C27.0926 48.4325 27.1727 48.1155 27.0392 47.8738L14.2637 24.7459L27.1327 1.43803C27.2662 1.19629 27.1861 0.879276 26.9538 0.729959C26.7215 0.580642 26.425 0.655568 26.2915 0.89731L13.6937 23.714L1.09293 0.902548C0.95941 0.660832 0.662835 0.585888 0.430513 0.735157C0.198191 0.884425 0.118097 1.20138 0.251618 1.4431L13.1238 24.746L0.354366 47.8736Z" fill="#D7D7D7"/>
</svg>
