<svg width="291" height="91" viewBox="0 0 291 91" fill="none" xmlns="http://www.w3.org/2000/svg">
<path d="M73.8584 59.8486C73.8584 60.8467 73.9678 61.6602 74.1865 62.2891C74.4053 62.918 74.7881 63.4033 75.335 63.7451C75.3486 63.8135 75.3555 63.9297 75.3555 64.0938V64.4014C75.3555 66.2744 74.8086 67.7373 73.7148 68.79C72.6211 69.8428 71.2061 70.3691 69.4697 70.3691C67.7471 70.3691 66.3594 69.8975 65.3066 68.9541C64.0625 67.8604 63.4404 66.1855 63.4404 63.9297V57.4492C63.4404 56.5332 63.1396 56.0752 62.5381 56.0752C62.3057 56.0752 62.1211 56.1299 61.9844 56.2393L62.3535 59.2949V63.9297C62.3535 65.7891 62.6611 67.1973 63.2764 68.1543C62.6201 68.8516 61.7998 69.3984 60.8154 69.7949C59.8447 70.1777 58.8535 70.3691 57.8418 70.3691C56.2012 70.3691 54.9297 69.9727 54.0273 69.1797C52.9336 68.2227 52.3867 66.7119 52.3867 64.6475V57.4492C52.3867 56.5332 52.0859 56.0752 51.4844 56.0752C51.252 56.0752 51.0674 56.1299 50.9307 56.2393L51.2998 59.2949V64.7295C51.2998 66.2607 51.5049 67.4434 51.915 68.2773C50.5752 69.6582 48.6953 70.3486 46.2754 70.3486C44.8398 70.3486 43.6299 69.9863 42.6455 69.2617C41.5107 68.4277 40.9434 67.3066 40.9434 65.8984V56.0957C40.1367 54.9609 39.7334 53.5664 39.7334 51.9121C39.7334 50.2441 40.1367 48.8018 40.9434 47.585H45.8857C46.8564 47.585 47.6836 47.9473 48.3672 48.6719C47.7656 49.2324 47.4648 49.6973 47.4648 50.0664C47.4648 50.4902 47.7041 50.7021 48.1826 50.7021C48.7842 49.6631 49.6113 48.8359 50.6641 48.2207C51.8945 47.5234 53.3369 47.1748 54.9912 47.1748C56.249 47.1748 57.3496 47.4414 58.293 47.9746C59.25 48.5078 59.9609 49.123 60.4258 49.8203C61.0684 48.9453 61.9023 48.2891 62.9277 47.8516C63.9668 47.4004 65.0469 47.1748 66.168 47.1748C68.6426 47.1748 70.5635 47.9404 71.9307 49.4717C73.2705 51.0029 73.9404 53.1016 73.9404 55.7676L73.8584 59.8486ZM87.4648 70.6357C83.6776 70.6357 80.6903 69.583 78.5028 67.4775C76.2607 65.3584 75.1396 62.46 75.1396 58.7822C75.1396 55.0908 76.2948 52.165 78.6054 50.0049C80.7382 47.9951 83.4384 46.9902 86.706 46.9902C89.9735 46.9902 92.5917 47.8926 94.5605 49.6973C96.5429 51.4883 97.5341 53.6963 97.5341 56.3213C97.5341 58.6592 96.7206 60.4229 95.0937 61.6123C93.5898 62.7334 91.539 63.2939 88.9413 63.2939C86.9999 63.2939 85.3593 62.8906 84.0194 62.084C83.9101 62.166 83.8554 62.3164 83.8554 62.5352C83.8554 62.9453 84.3954 63.3213 85.4755 63.6631C86.5556 64.0322 87.7792 64.2168 89.1464 64.2168C90.5273 64.2168 91.7782 64.0459 92.8993 63.7041C94.0341 63.3486 94.9433 62.9316 95.6269 62.4531C95.955 62.7402 96.2148 63.2734 96.4062 64.0527C96.6112 64.8184 96.7138 65.5225 96.7138 66.165C96.7138 66.7939 96.6523 67.3545 96.5292 67.8467C95.4628 68.749 94.3691 69.3916 93.248 69.7744C91.662 70.3486 89.7343 70.6357 87.4648 70.6357ZM87.1982 56.752C87.8817 56.752 88.2235 56.4922 88.2235 55.9727C88.2235 55.4805 87.8612 55.2344 87.1366 55.2344C86.412 55.2344 85.995 55.624 85.8857 56.4033C86.2685 56.6357 86.706 56.752 87.1982 56.752ZM110.218 70.6357C106.43 70.6357 103.443 69.583 101.256 67.4775C99.0135 65.3584 97.8924 62.46 97.8924 58.7822C97.8924 55.0908 99.0477 52.165 101.358 50.0049C103.491 47.9951 106.191 46.9902 109.459 46.9902C112.726 46.9902 115.345 47.8926 117.313 49.6973C119.296 51.4883 120.287 53.6963 120.287 56.3213C120.287 58.6592 119.473 60.4229 117.847 61.6123C116.343 62.7334 114.292 63.2939 111.694 63.2939C109.753 63.2939 108.112 62.8906 106.772 62.084C106.663 62.166 106.608 62.3164 106.608 62.5352C106.608 62.9453 107.148 63.3213 108.228 63.6631C109.308 64.0322 110.532 64.2168 111.899 64.2168C113.28 64.2168 114.531 64.0459 115.652 63.7041C116.787 63.3486 117.696 62.9316 118.38 62.4531C118.708 62.7402 118.968 63.2734 119.159 64.0527C119.364 64.8184 119.467 65.5225 119.467 66.165C119.467 66.7939 119.405 67.3545 119.282 67.8467C118.216 68.749 117.122 69.3916 116.001 69.7744C114.415 70.3486 112.487 70.6357 110.218 70.6357ZM109.951 56.752C110.635 56.752 110.976 56.4922 110.976 55.9727C110.976 55.4805 110.614 55.2344 109.889 55.2344C109.165 55.2344 108.748 55.624 108.639 56.4033C109.021 56.6357 109.459 56.752 109.951 56.752ZM140.087 52.835C140.087 53.2041 140.032 53.7441 139.923 54.4551C139.813 55.1523 139.683 55.7129 139.533 56.1367C138.261 57.8867 136.737 59.3633 134.96 60.5664C133.21 60.6484 131.925 60.8262 131.104 61.0996C130.298 61.373 129.894 61.6807 129.894 62.0225C129.894 62.2412 129.969 62.4053 130.12 62.5146C130.694 62.2002 131.487 61.9541 132.499 61.7764C133.51 61.585 134.481 61.4893 135.411 61.4893H139.369C139.724 62.1045 140.011 62.7949 140.23 63.5605C140.449 64.3125 140.558 64.9756 140.558 65.5498C140.558 67.1357 140.128 68.3115 139.266 69.0771C138.583 69.6924 137.646 70 136.457 70H121.835C120.618 68.7285 120.01 66.7461 120.01 64.0527C120.01 63.0684 120.187 61.8994 120.543 60.5459C121.787 59.165 123.551 57.5996 125.834 55.8496C126.285 55.4941 126.791 55.0771 127.351 54.5986C127.269 54.2842 127.085 54.127 126.798 54.127C126.743 54.127 126.647 54.1406 126.51 54.168C126.114 54.291 125.287 54.9404 124.029 56.1162H121.486C120.679 54.79 120.276 53.3682 120.276 51.8506C120.276 50.8936 120.426 50.0459 120.727 49.3076C121.028 48.5693 121.397 47.9951 121.835 47.585H138.754C139.642 48.8838 140.087 50.6338 140.087 52.835Z" fill="#3278DE"/>
<path d="M160.009 52.835C160.009 53.2041 159.955 53.7441 159.845 54.4551C159.736 55.1523 159.606 55.7129 159.456 56.1367C158.184 57.8867 156.66 59.3633 154.882 60.5664C153.132 60.6484 151.847 60.8262 151.027 61.0996C150.22 61.373 149.817 61.6807 149.817 62.0225C149.817 62.2412 149.892 62.4053 150.043 62.5146C150.617 62.2002 151.41 61.9541 152.422 61.7764C153.433 61.585 154.404 61.4893 155.334 61.4893H159.292C159.647 62.1045 159.934 62.7949 160.153 63.5605C160.372 64.3125 160.481 64.9756 160.481 65.5498C160.481 67.1357 160.05 68.3115 159.189 69.0771C158.506 69.6924 157.569 70 156.38 70H141.757C140.541 68.7285 139.932 66.7461 139.932 64.0527C139.932 63.0684 140.11 61.8994 140.465 60.5459C141.71 59.165 143.473 57.5996 145.756 55.8496C146.208 55.4941 146.714 55.0771 147.274 54.5986C147.192 54.2842 147.007 54.127 146.72 54.127C146.666 54.127 146.57 54.1406 146.433 54.168C146.037 54.291 145.21 54.9404 143.952 56.1162H141.409C140.602 54.79 140.199 53.3682 140.199 51.8506C140.199 50.8936 140.349 50.0459 140.65 49.3076C140.951 48.5693 141.32 47.9951 141.757 47.585H158.676C159.565 48.8838 160.009 50.6338 160.009 52.835ZM171.483 45.2471V59.6641C171.483 61.7012 171.975 63.0273 172.96 63.6426C172.973 63.7109 172.98 63.8408 172.98 64.0322V64.4014C172.98 66.3564 172.481 67.8398 171.483 68.8516C170.499 69.8633 169.097 70.3691 167.279 70.3691C165.461 70.3691 164.018 69.8633 162.952 68.8516C161.68 67.6484 161.044 65.8301 161.044 63.3965V42.0889C162.48 41.2139 164.121 40.7764 165.966 40.7764C167.826 40.7764 169.207 41.1729 170.109 41.9658C171.025 42.7451 171.483 43.8389 171.483 45.2471ZM185.11 70.6357C181.323 70.6357 178.335 69.583 176.148 67.4775C173.906 65.3584 172.785 62.46 172.785 58.7822C172.785 55.0908 173.94 52.165 176.25 50.0049C178.383 47.9951 181.083 46.9902 184.351 46.9902C187.619 46.9902 190.237 47.8926 192.206 49.6973C194.188 51.4883 195.179 53.6963 195.179 56.3213C195.179 58.6592 194.366 60.4229 192.739 61.6123C191.235 62.7334 189.184 63.2939 186.586 63.2939C184.645 63.2939 183.004 62.8906 181.665 62.084C181.555 62.166 181.5 62.3164 181.5 62.5352C181.5 62.9453 182.04 63.3213 183.121 63.6631C184.201 64.0322 185.424 64.2168 186.791 64.2168C188.172 64.2168 189.423 64.0459 190.544 63.7041C191.679 63.3486 192.588 62.9316 193.272 62.4531C193.6 62.7402 193.86 63.2734 194.051 64.0527C194.256 64.8184 194.359 65.5225 194.359 66.165C194.359 66.7939 194.297 67.3545 194.174 67.8467C193.108 68.749 192.014 69.3916 190.893 69.7744C189.307 70.3486 187.379 70.6357 185.11 70.6357ZM184.843 56.752C185.527 56.752 185.869 56.4922 185.869 55.9727C185.869 55.4805 185.506 55.2344 184.782 55.2344C184.057 55.2344 183.64 55.624 183.531 56.4033C183.914 56.6357 184.351 56.752 184.843 56.752Z" fill="#C1CBED"/>
<path d="M13.5 15.675C13.2 16.4083 12.7583 17.05 12.175 17.6C11.6083 18.15 10.9083 18.5917 10.075 18.925C9.25833 19.2417 8.34167 19.4 7.325 19.4C6.29167 19.4 5.36667 19.2417 4.55 18.925C3.73333 18.5917 3.03333 18.15 2.45 17.6C1.88333 17.05 1.44167 16.4083 1.125 15.675C0.825 14.925 0.675 14.1333 0.675 13.3C0.675 12.4667 0.825 11.6833 1.125 10.95C1.44167 10.2 1.88333 9.55 2.45 9C3.03333 8.45 3.73333 8.01667 4.55 7.7C5.36667 7.36667 6.29167 7.2 7.325 7.2C8.34167 7.2 9.25833 7.36667 10.075 7.7C10.9083 8.01667 11.6083 8.45 12.175 9C12.7583 9.55 13.2 10.2 13.5 10.95C13.8167 11.6833 13.975 12.4667 13.975 13.3C13.975 14.1333 13.8167 14.925 13.5 15.675ZM19.95 29.425H16.5V23.65H2.85V20.6H19.95V29.425ZM22.75 17.625H19.95V19.75H16.5V7.3H19.95V9.25H22.75V12.375H19.95V14.5H22.75V17.625ZM7.325 16.4C8.325 16.4 9.10833 16.1167 9.675 15.55C10.2417 14.9667 10.525 14.2167 10.525 13.3C10.525 12.3833 10.2417 11.6417 9.675 11.075C9.10833 10.4917 8.325 10.2 7.325 10.2C6.325 10.2 5.54167 10.4917 4.975 11.075C4.40833 11.6417 4.125 12.3833 4.125 13.3C4.125 14.2167 4.40833 14.9667 4.975 15.55C5.54167 16.1167 6.325 16.4 7.325 16.4ZM45.098 20.325H23.348V17.325H32.473V14.7H35.973V17.325H45.098V20.325ZM43.123 29.425H39.673V24.775H24.948V21.775H43.123V29.425ZM42.798 16.1C41.6147 15.7 40.4314 15.2583 39.248 14.775C38.0647 14.2917 36.8897 13.8 35.723 13.3C35.4397 13.1833 35.173 13.0583 34.923 12.925C34.6897 12.775 34.4564 12.6167 34.223 12.45C33.7397 12.8 33.2314 13.0833 32.698 13.3C31.5314 13.8 30.3564 14.3 29.173 14.8C28.0064 15.3 26.8314 15.7667 25.648 16.2L24.173 13.65C25.3064 13.2 26.523 12.6917 27.823 12.125C29.123 11.5583 30.3314 11.0083 31.448 10.475C31.798 10.3083 32.0564 10.1 32.223 9.85C32.3897 9.58333 32.473 9.23333 32.473 8.8V7.125H35.973V8.8C35.973 9.23333 36.0564 9.58333 36.223 9.85C36.3897 10.1 36.648 10.3083 36.998 10.475C38.1147 11.0083 39.3147 11.55 40.598 12.1C41.898 12.6333 43.123 13.1167 44.273 13.55L42.798 16.1ZM170.663 27.9H148.913V24.85H158.038V20.35H151.063V7.975H168.513V20.35H161.538V24.85H170.663V27.9ZM165.063 17.3V11.025H154.513V17.3H165.063ZM191.836 19.25H188.386V7.3H191.836V19.25ZM191.836 29.175H174.586V20.1H191.836V29.175ZM188.386 26.175V23.1H178.036V26.175H188.386ZM185.386 15.325C185.07 16.025 184.611 16.6417 184.011 17.175C183.428 17.7083 182.711 18.1333 181.861 18.45C181.028 18.75 180.086 18.9 179.036 18.9C177.986 18.9 177.036 18.75 176.186 18.45C175.353 18.1333 174.636 17.7083 174.036 17.175C173.453 16.6417 172.995 16.025 172.661 15.325C172.345 14.6083 172.186 13.85 172.186 13.05C172.186 12.25 172.345 11.5 172.661 10.8C172.995 10.0833 173.453 9.45833 174.036 8.925C174.636 8.39167 175.353 7.975 176.186 7.675C177.036 7.35833 177.986 7.2 179.036 7.2C180.086 7.2 181.028 7.35833 181.861 7.675C182.711 7.975 183.428 8.39167 184.011 8.925C184.611 9.45833 185.07 10.0833 185.386 10.8C185.72 11.5 185.886 12.25 185.886 13.05C185.886 13.85 185.72 14.6083 185.386 15.325ZM181.511 15.125C182.128 14.5917 182.436 13.9 182.436 13.05C182.436 12.2 182.128 11.5167 181.511 11C180.911 10.4667 180.086 10.2 179.036 10.2C177.986 10.2 177.153 10.4667 176.536 11C175.936 11.5167 175.636 12.2 175.636 13.05C175.636 13.9 175.936 14.5917 176.536 15.125C177.153 15.6417 177.986 15.9 179.036 15.9C180.086 15.9 180.911 15.6417 181.511 15.125Z" fill="#838383"/>
<path d="M67.7211 20.525H46.1711V18.225H67.7211V20.525ZM66.1211 29.075H48.4961V22.325H51.0961V26.775H66.1211V29.075ZM52.6711 16.525C51.9044 16.525 51.2128 16.4167 50.5961 16.2C49.9794 15.9667 49.4461 15.6417 48.9961 15.225C48.5628 14.8083 48.2294 14.325 47.9961 13.775C47.7628 13.2083 47.6461 12.5833 47.6461 11.9C47.6461 11.2333 47.7628 10.625 47.9961 10.075C48.2294 9.50833 48.5628 9.025 48.9961 8.625C49.4461 8.20833 49.9794 7.89167 50.5961 7.675C51.2128 7.44167 51.9044 7.325 52.6711 7.325H61.2211C61.9878 7.325 62.6794 7.44167 63.2961 7.675C63.9128 7.89167 64.4378 8.20833 64.8711 8.625C65.3044 9.025 65.6378 9.50833 65.8711 10.075C66.1211 10.625 66.2461 11.2333 66.2461 11.9C66.2461 12.5833 66.1211 13.2083 65.8711 13.775C65.6378 14.325 65.3044 14.8083 64.8711 15.225C64.4378 15.6417 63.9128 15.9667 63.2961 16.2C62.6794 16.4167 61.9878 16.525 61.2211 16.525H52.6711ZM60.9961 14.225C61.9128 14.225 62.5794 14.0083 62.9961 13.575C63.4294 13.1417 63.6461 12.5833 63.6461 11.9C63.6461 11.2333 63.4294 10.6917 62.9961 10.275C62.5794 9.84167 61.9128 9.625 60.9961 9.625H52.8961C51.9794 9.625 51.3044 9.84167 50.8711 10.275C50.4544 10.6917 50.2461 11.2333 50.2461 11.9C50.2461 12.5833 50.4544 13.1417 50.8711 13.575C51.3044 14.0083 51.9794 14.225 52.8961 14.225H60.9961ZM94.7191 23.85H92.1191V16.375H89.1441V14.05H92.1191V12.325H89.1441V10.4H87.3191V17.925H89.8941V20.225H75.3441V17.925H77.7941V10.4H75.5941V8.1H89.5191V10H92.1191V7.4H94.7191V23.85ZM95.2441 29.075H77.9691V22.125H80.5691V26.775H95.2441V29.075ZM84.7191 17.925V10.4H80.3941V17.925H84.7191ZM110.917 21.025C110.917 21.825 110.767 22.5583 110.467 23.225C110.167 23.8917 109.742 24.4667 109.192 24.95C108.642 25.4333 107.976 25.8083 107.192 26.075C106.426 26.3417 105.567 26.475 104.617 26.475C103.651 26.475 102.776 26.3417 101.992 26.075C101.226 25.8083 100.567 25.4333 100.017 24.95C99.4672 24.4667 99.0422 23.8917 98.7422 23.225C98.4422 22.5583 98.2922 21.825 98.2922 21.025V19.1C98.2922 18.3 98.4422 17.5667 98.7422 16.9C99.0422 16.2333 99.4672 15.6583 100.017 15.175C100.567 14.6917 101.226 14.3167 101.992 14.05C102.776 13.7833 103.651 13.65 104.617 13.65C105.567 13.65 106.426 13.7833 107.192 14.05C107.976 14.3167 108.642 14.6917 109.192 15.175C109.742 15.6583 110.167 16.2333 110.467 16.9C110.767 17.5667 110.917 18.3 110.917 19.1V21.025ZM116.367 29.275H113.767V7.4H116.367V16.825H119.492V19.175H116.367V29.275ZM108.317 19.275C108.317 18.175 107.976 17.3333 107.292 16.75C106.626 16.15 105.734 15.85 104.617 15.85C103.484 15.85 102.576 16.1417 101.892 16.725C101.226 17.3083 100.892 18.1583 100.892 19.275V20.85C100.892 21.9667 101.226 22.8167 101.892 23.4C102.576 23.9833 103.484 24.275 104.617 24.275C105.734 24.275 106.626 23.9833 107.292 23.4C107.976 22.8167 108.317 21.9667 108.317 20.85V19.275ZM111.592 12.275H97.6422V10.075H103.317V7.175H105.917V10.075H111.592V12.275ZM135.99 28.625H133.415V17.95H129.79C129.757 18.0167 129.69 18.1167 129.59 18.25C128.54 19.6333 127.415 21.0083 126.215 22.375C125.015 23.7417 123.799 25.1167 122.565 26.5L120.79 25.025C121.94 23.725 123.065 22.4333 124.165 21.15C125.282 19.85 126.332 18.55 127.315 17.25C127.865 16.5333 128.14 15.6 128.14 14.45V10.8H121.54V8.5H130.69V14.375C130.69 14.825 130.665 15.2333 130.615 15.6H133.415V7.65H135.99V28.625ZM141.215 29.25H138.615V7.4H141.215V29.25Z" fill="#C4C4C4"/>
<path d="M216.009 20.525H194.459V18.225H216.009V20.525ZM214.409 29.075H196.784V22.325H199.384V26.775H214.409V29.075ZM200.959 16.525C200.193 16.525 199.501 16.4167 198.884 16.2C198.268 15.9667 197.734 15.6417 197.284 15.225C196.851 14.8083 196.518 14.325 196.284 13.775C196.051 13.2083 195.934 12.5833 195.934 11.9C195.934 11.2333 196.051 10.625 196.284 10.075C196.518 9.50833 196.851 9.025 197.284 8.625C197.734 8.20833 198.268 7.89167 198.884 7.675C199.501 7.44167 200.193 7.325 200.959 7.325H209.509C210.276 7.325 210.968 7.44167 211.584 7.675C212.201 7.89167 212.726 8.20833 213.159 8.625C213.593 9.025 213.926 9.50833 214.159 10.075C214.409 10.625 214.534 11.2333 214.534 11.9C214.534 12.5833 214.409 13.2083 214.159 13.775C213.926 14.325 213.593 14.8083 213.159 15.225C212.726 15.6417 212.201 15.9667 211.584 16.2C210.968 16.4167 210.276 16.525 209.509 16.525H200.959ZM209.284 14.225C210.201 14.225 210.868 14.0083 211.284 13.575C211.718 13.1417 211.934 12.5833 211.934 11.9C211.934 11.2333 211.718 10.6917 211.284 10.275C210.868 9.84167 210.201 9.625 209.284 9.625H201.184C200.268 9.625 199.593 9.84167 199.159 10.275C198.743 10.6917 198.534 11.2333 198.534 11.9C198.534 12.5833 198.743 13.1417 199.159 13.575C199.593 14.0083 200.268 14.225 201.184 14.225H209.284ZM243.082 29.325H225.282V23.375H239.982V21.775H225.257V19.575H242.582V25.525H227.882V27.125H243.082V29.325ZM242.682 15.075C241.449 14.7583 240.216 14.4083 238.982 14.025C237.766 13.6417 236.574 13.2083 235.407 12.725C235.141 12.6083 234.882 12.5 234.632 12.4C234.382 12.3 234.141 12.1583 233.907 11.975C233.674 12.1583 233.432 12.3 233.182 12.4C232.932 12.5 232.674 12.6083 232.407 12.725C231.241 13.2083 230.041 13.6417 228.807 14.025C227.591 14.4083 226.366 14.7583 225.132 15.075L224.132 13.15C225.349 12.7833 226.591 12.3917 227.857 11.975C229.141 11.5417 230.382 11.075 231.582 10.575C231.849 10.4583 232.066 10.3167 232.232 10.15C232.399 9.98333 232.507 9.75833 232.557 9.475H225.157V7.275H242.707V9.475H235.257C235.291 9.75833 235.391 9.98333 235.557 10.15C235.741 10.3167 235.966 10.4583 236.232 10.575C237.432 11.075 238.666 11.5417 239.932 11.975C241.216 12.3917 242.466 12.7833 243.682 13.15L242.682 15.075ZM244.707 18.125H223.157V15.975H244.707V18.125ZM265.73 29.075H248.98V20.25H251.58V22.225H263.13V20.25H265.73V29.075ZM265.73 19.15H263.13V14.65H257.755C257.455 14.9 257.097 15.1083 256.68 15.275C255.214 15.9083 253.664 16.55 252.03 17.2C250.397 17.85 248.789 18.4667 247.205 19.05L246.205 17.05C246.972 16.75 247.747 16.45 248.53 16.15C249.33 15.8333 250.114 15.525 250.88 15.225C251.664 14.9083 252.414 14.6 253.13 14.3C253.864 13.9833 254.547 13.675 255.18 13.375C255.564 13.1917 255.83 12.9833 255.98 12.75C256.13 12.5 256.205 12.1167 256.205 11.6V10.275H247.255V7.975H258.805V12.025V12.35H263.13V7.4H265.73V19.15ZM263.13 26.775V24.525H251.58V26.775H263.13ZM284.279 28.625H281.704V17.95H278.079C278.045 18.0167 277.979 18.1167 277.879 18.25C276.829 19.6333 275.704 21.0083 274.504 22.375C273.304 23.7417 272.087 25.1167 270.854 26.5L269.079 25.025C270.229 23.725 271.354 22.4333 272.454 21.15C273.57 19.85 274.62 18.55 275.604 17.25C276.154 16.5333 276.429 15.6 276.429 14.45V10.8H269.829V8.5H278.979V14.375C278.979 14.825 278.954 15.2333 278.904 15.6H281.704V7.65H284.279V28.625ZM289.504 29.25H286.904V7.4H289.504V29.25Z" fill="#C3C3C3"/>
<path d="M218.65 70.625H216.075V59.775H213.75V62.1C213.75 63 213.625 63.825 213.375 64.575C213.142 65.325 212.8 65.975 212.35 66.525C211.9 67.0583 211.358 67.475 210.725 67.775C210.092 68.075 209.383 68.225 208.6 68.225C207.817 68.225 207.108 68.075 206.475 67.775C205.842 67.475 205.3 67.0583 204.85 66.525C204.4 65.975 204.05 65.325 203.8 64.575C203.567 63.825 203.45 63 203.45 62.1V56C203.45 55.1 203.567 54.275 203.8 53.525C204.05 52.775 204.4 52.1333 204.85 51.6C205.3 51.05 205.842 50.625 206.475 50.325C207.108 50.025 207.817 49.875 208.6 49.875C209.383 49.875 210.092 50.025 210.725 50.325C211.358 50.625 211.9 51.05 212.35 51.6C212.8 52.1333 213.142 52.775 213.375 53.525C213.625 54.275 213.75 55.1 213.75 56V57.425H216.075V49.65H218.65V70.625ZM206.025 62.05C206.025 63.2 206.233 64.1333 206.65 64.85C207.083 65.5667 207.733 65.925 208.6 65.925C209.467 65.925 210.108 65.5667 210.525 64.85C210.958 64.1333 211.175 63.2 211.175 62.05V56.05C211.175 54.9 210.958 53.9667 210.525 53.25C210.108 52.5333 209.467 52.175 208.6 52.175C207.733 52.175 207.083 52.5333 206.65 53.25C206.233 53.9667 206.025 54.9 206.025 56.05V62.05ZM223.625 71.25H221.025V49.4H223.625V71.25ZM239.098 67.825C237.965 66.475 236.923 65.2167 235.973 64.05C235.023 62.8667 234.115 61.6583 233.248 60.425C232.398 61.6583 231.44 62.925 230.373 64.225C229.306 65.525 228.215 66.825 227.098 68.125L225.398 66.375C226.448 65.175 227.481 63.9083 228.498 62.575C229.531 61.225 230.44 59.9333 231.223 58.7C231.456 58.3333 231.623 57.8917 231.723 57.375C231.84 56.8583 231.898 56.35 231.898 55.85V50.2H234.548V55.775C234.548 56.275 234.598 56.7833 234.698 57.3C234.798 57.8 234.965 58.2333 235.198 58.6C235.998 59.8167 236.873 61.0667 237.823 62.35C238.79 63.6333 239.781 64.875 240.798 66.075L239.098 67.825ZM245.473 71.275H242.873V58.25H237.548V55.9H242.873V49.4H245.473V71.275Z" fill="#CACACA"/>
</svg>
