<svg width="120" height="24" viewBox="0 0 120 24" fill="none" xmlns="http://www.w3.org/2000/svg">
<path d="M26.7969 15.2656C26.7969 16.026 26.8802 16.6458 27.0469 17.125C27.2135 17.6042 27.5052 17.974 27.9219 18.2344C27.9323 18.2865 27.9375 18.375 27.9375 18.5V18.7344C27.9375 20.1615 27.5208 21.276 26.6875 22.0781C25.8542 22.8802 24.776 23.2812 23.4531 23.2812C22.1406 23.2812 21.0833 22.9219 20.2812 22.2031C19.3333 21.3698 18.8594 20.0938 18.8594 18.375V13.4375C18.8594 12.7396 18.6302 12.3906 18.1719 12.3906C17.9948 12.3906 17.8542 12.4323 17.75 12.5156L18.0312 14.8438V18.375C18.0312 19.7917 18.2656 20.8646 18.7344 21.5938C18.2344 22.125 17.6094 22.5417 16.8594 22.8438C16.1198 23.1354 15.3646 23.2812 14.5938 23.2812C13.3438 23.2812 12.375 22.9792 11.6875 22.375C10.8542 21.6458 10.4375 20.4948 10.4375 18.9219V13.4375C10.4375 12.7396 10.2083 12.3906 9.75 12.3906C9.57292 12.3906 9.43229 12.4323 9.32812 12.5156L9.60938 14.8438V18.9844C9.60938 20.151 9.76562 21.0521 10.0781 21.6875C9.05729 22.7396 7.625 23.2656 5.78125 23.2656C4.6875 23.2656 3.76562 22.9896 3.01562 22.4375C2.15104 21.8021 1.71875 20.9479 1.71875 19.875V12.4062C1.10417 11.5417 0.796875 10.4792 0.796875 9.21875C0.796875 7.94792 1.10417 6.84896 1.71875 5.92188H5.48438C6.22396 5.92188 6.85417 6.19792 7.375 6.75C6.91667 7.17708 6.6875 7.53125 6.6875 7.8125C6.6875 8.13542 6.86979 8.29688 7.23438 8.29688C7.69271 7.50521 8.32292 6.875 9.125 6.40625C10.0625 5.875 11.1615 5.60938 12.4219 5.60938C13.3802 5.60938 14.2188 5.8125 14.9375 6.21875C15.6667 6.625 16.2083 7.09375 16.5625 7.625C17.0521 6.95833 17.6875 6.45833 18.4688 6.125C19.2604 5.78125 20.0833 5.60938 20.9375 5.60938C22.8229 5.60938 24.2865 6.19271 25.3281 7.35938C26.349 8.52604 26.8594 10.125 26.8594 12.1562L26.7969 15.2656ZM37.1636 23.4844C34.2782 23.4844 32.0022 22.6823 30.3355 21.0781C28.6272 19.4635 27.773 17.2552 27.773 14.4531C27.773 11.6406 28.6532 9.41146 30.4136 7.76562C32.0386 6.23438 34.0959 5.46875 36.5855 5.46875C39.0751 5.46875 41.0699 6.15625 42.5699 7.53125C44.0803 8.89583 44.8355 10.5781 44.8355 12.5781C44.8355 14.3594 44.2157 15.7031 42.9761 16.6094C41.8303 17.4635 40.2678 17.8906 38.2886 17.8906C36.8095 17.8906 35.5595 17.5833 34.5386 16.9688C34.4553 17.0312 34.4136 17.1458 34.4136 17.3125C34.4136 17.625 34.8251 17.9115 35.648 18.1719C36.4709 18.4531 37.4032 18.5938 38.4449 18.5938C39.497 18.5938 40.4501 18.4635 41.3043 18.2031C42.1688 17.9323 42.8615 17.6146 43.3824 17.25C43.6324 17.4688 43.8303 17.875 43.9761 18.4688C44.1324 19.0521 44.2105 19.5885 44.2105 20.0781C44.2105 20.5573 44.1636 20.9844 44.0699 21.3594C43.2574 22.0469 42.424 22.5365 41.5699 22.8281C40.3615 23.2656 38.8928 23.4844 37.1636 23.4844ZM36.9605 12.9062C37.4813 12.9062 37.7418 12.7083 37.7418 12.3125C37.7418 11.9375 37.4657 11.75 36.9136 11.75C36.3615 11.75 36.0438 12.0469 35.9605 12.6406C36.2522 12.8177 36.5855 12.9062 36.9605 12.9062ZM54.4991 23.4844C51.6137 23.4844 49.3377 22.6823 47.671 21.0781C45.9627 19.4635 45.1085 17.2552 45.1085 14.4531C45.1085 11.6406 45.9887 9.41146 47.7491 7.76562C49.3741 6.23438 51.4314 5.46875 53.921 5.46875C56.4106 5.46875 58.4054 6.15625 59.9054 7.53125C61.4158 8.89583 62.171 10.5781 62.171 12.5781C62.171 14.3594 61.5512 15.7031 60.3116 16.6094C59.1658 17.4635 57.6033 17.8906 55.6241 17.8906C54.145 17.8906 52.895 17.5833 51.8741 16.9688C51.7908 17.0312 51.7491 17.1458 51.7491 17.3125C51.7491 17.625 52.1606 17.9115 52.9835 18.1719C53.8064 18.4531 54.7387 18.5938 55.7804 18.5938C56.8325 18.5938 57.7856 18.4635 58.6398 18.2031C59.5043 17.9323 60.197 17.6146 60.7179 17.25C60.9679 17.4688 61.1658 17.875 61.3116 18.4688C61.4679 19.0521 61.546 19.5885 61.546 20.0781C61.546 20.5573 61.4991 20.9844 61.4054 21.3594C60.5929 22.0469 59.7595 22.5365 58.9054 22.8281C57.697 23.2656 56.2283 23.4844 54.4991 23.4844ZM54.296 12.9062C54.8168 12.9062 55.0773 12.7083 55.0773 12.3125C55.0773 11.9375 54.8012 11.75 54.2491 11.75C53.697 11.75 53.3793 12.0469 53.296 12.6406C53.5877 12.8177 53.921 12.9062 54.296 12.9062ZM77.2565 9.92188C77.2565 10.2031 77.2148 10.6146 77.1315 11.1562C77.0482 11.6875 76.9492 12.1146 76.8346 12.4375C75.8659 13.7708 74.7044 14.8958 73.3503 15.8125C72.0169 15.875 71.0378 16.0104 70.4128 16.2188C69.7982 16.4271 69.4909 16.6615 69.4909 16.9219C69.4909 17.0885 69.5482 17.2135 69.6628 17.2969C70.1003 17.0573 70.7044 16.8698 71.4753 16.7344C72.2461 16.5885 72.9857 16.5156 73.694 16.5156H76.7096C76.9805 16.9844 77.1992 17.5104 77.3659 18.0938C77.5325 18.6667 77.6159 19.1719 77.6159 19.6094C77.6159 20.8177 77.2878 21.7135 76.6315 22.2969C76.1107 22.7656 75.3971 23 74.4909 23H63.3503C62.4232 22.0312 61.9596 20.5208 61.9596 18.4688C61.9596 17.7188 62.095 16.8281 62.3659 15.7969C63.3138 14.7448 64.6575 13.5521 66.3971 12.2188C66.7409 11.9479 67.1263 11.6302 67.5534 11.2656C67.4909 11.026 67.3503 10.9062 67.1315 10.9062C67.0898 10.9062 67.0169 10.9167 66.9128 10.9375C66.6107 11.0312 65.9805 11.526 65.0221 12.4219H63.0846C62.47 11.4115 62.1628 10.3281 62.1628 9.17188C62.1628 8.44271 62.2773 7.79688 62.5065 7.23438C62.7357 6.67188 63.0169 6.23438 63.3503 5.92188H76.2409C76.918 6.91146 77.2565 8.24479 77.2565 9.92188Z" fill="#3278DE"/>
<path d="M92.4358 9.92188C92.4358 10.2031 92.3941 10.6146 92.3108 11.1562C92.2274 11.6875 92.1285 12.1146 92.0139 12.4375C91.0451 13.7708 89.8837 14.8958 88.5295 15.8125C87.1962 15.875 86.217 16.0104 85.592 16.2188C84.9774 16.4271 84.6701 16.6615 84.6701 16.9219C84.6701 17.0885 84.7274 17.2135 84.842 17.2969C85.2795 17.0573 85.8837 16.8698 86.6545 16.7344C87.4253 16.5885 88.1649 16.5156 88.8733 16.5156H91.8889C92.1597 16.9844 92.3785 17.5104 92.5451 18.0938C92.7118 18.6667 92.7951 19.1719 92.7951 19.6094C92.7951 20.8177 92.467 21.7135 91.8108 22.2969C91.2899 22.7656 90.5764 23 89.6701 23H78.5295C77.6024 22.0312 77.1389 20.5208 77.1389 18.4688C77.1389 17.7188 77.2743 16.8281 77.5451 15.7969C78.493 14.7448 79.8368 13.5521 81.5764 12.2188C81.9201 11.9479 82.3055 11.6302 82.7326 11.2656C82.6701 11.026 82.5295 10.9062 82.3108 10.9062C82.2691 10.9062 82.1962 10.9167 82.092 10.9375C81.7899 11.0312 81.1597 11.526 80.2014 12.4219H78.2639C77.6493 11.4115 77.342 10.3281 77.342 9.17188C77.342 8.44271 77.4566 7.79688 77.6858 7.23438C77.9149 6.67188 78.1962 6.23438 78.5295 5.92188H91.4201C92.0972 6.91146 92.4358 8.24479 92.4358 9.92188ZM101.177 4.14062V15.125C101.177 16.6771 101.552 17.6875 102.302 18.1562C102.313 18.2083 102.318 18.3073 102.318 18.4531V18.7344C102.318 20.224 101.938 21.3542 101.177 22.125C100.427 22.8958 99.3598 23.2812 97.9744 23.2812C96.589 23.2812 95.49 22.8958 94.6775 22.125C93.7087 21.2083 93.2244 19.8229 93.2244 17.9688V1.73438C94.3181 1.06771 95.5681 0.734375 96.9744 0.734375C98.391 0.734375 99.4431 1.03646 100.131 1.64062C100.829 2.23438 101.177 3.06771 101.177 4.14062ZM111.56 23.4844C108.674 23.4844 106.398 22.6823 104.732 21.0781C103.023 19.4635 102.169 17.2552 102.169 14.4531C102.169 11.6406 103.049 9.41146 104.81 7.76562C106.435 6.23438 108.492 5.46875 110.982 5.46875C113.471 5.46875 115.466 6.15625 116.966 7.53125C118.477 8.89583 119.232 10.5781 119.232 12.5781C119.232 14.3594 118.612 15.7031 117.372 16.6094C116.227 17.4635 114.664 17.8906 112.685 17.8906C111.206 17.8906 109.956 17.5833 108.935 16.9688C108.852 17.0312 108.81 17.1458 108.81 17.3125C108.81 17.625 109.221 17.9115 110.044 18.1719C110.867 18.4531 111.799 18.5938 112.841 18.5938C113.893 18.5938 114.846 18.4635 115.701 18.2031C116.565 17.9323 117.258 17.6146 117.779 17.25C118.029 17.4688 118.227 17.875 118.372 18.4688C118.529 19.0521 118.607 19.5885 118.607 20.0781C118.607 20.5573 118.56 20.9844 118.466 21.3594C117.654 22.0469 116.82 22.5365 115.966 22.8281C114.758 23.2656 113.289 23.4844 111.56 23.4844ZM111.357 12.9062C111.878 12.9062 112.138 12.7083 112.138 12.3125C112.138 11.9375 111.862 11.75 111.31 11.75C110.758 11.75 110.44 12.0469 110.357 12.6406C110.648 12.8177 110.982 12.9062 111.357 12.9062Z" fill="#97B0D6"/>
</svg>
