<svg width="18" height="18" viewBox="0 0 18 18" fill="none" xmlns="http://www.w3.org/2000/svg">
<path fill-rule="evenodd" clip-rule="evenodd" d="M4.04618 16.3125C6.41768 16.3125 11.5865 16.3125 13.958 16.2962C14.4609 16.2962 14.9402 16.0661 15.2574 15.6707C15.5747 15.2758 15.695 14.7583 15.5854 14.2633V14.2622C14.9064 11.2511 12.2143 9.00004 9.0002 9.00004C5.7878 9.00004 3.0962 11.2494 2.3993 14.2544L2.39871 14.2572C2.28739 14.7595 2.40944 15.2826 2.73006 15.6814C3.0501 16.0808 3.53444 16.3126 4.04631 16.3126L4.04618 16.3125ZM4.04618 15.1875C3.87515 15.1875 3.71372 15.1105 3.60684 14.9772C3.50108 14.8455 3.46007 14.6728 3.49546 14.5075C4.07824 12.0004 6.32146 10.1251 9.00016 10.1251C11.6777 10.1251 13.9215 11.9999 14.4873 14.5075C14.5228 14.6689 14.4834 14.8377 14.3798 14.967C14.2764 15.0958 14.1195 15.1712 13.954 15.1712H13.9523C11.5802 15.1875 6.41604 15.1875 4.04619 15.1875L4.04618 15.1875ZM9.02708 1.6875C7.13648 1.6875 5.60198 3.2226 5.60198 5.1132C5.60198 7.0038 7.13648 8.5383 9.02708 8.5383C10.9177 8.5383 12.4528 7.0038 12.4528 5.1132C12.4528 3.2226 10.9177 1.6875 9.02708 1.6875ZM9.02708 2.8125C10.2966 2.8125 11.3278 3.84299 11.3278 5.1132C11.3278 6.38276 10.2967 7.4133 9.02708 7.4133C7.75745 7.4133 6.72698 6.38282 6.72698 5.1132C6.72698 3.84306 7.75752 2.8125 9.02708 2.8125Z" fill="#414141"/>
</svg>
