<svg width="34" height="34" viewBox="0 0 34 34" fill="none" xmlns="http://www.w3.org/2000/svg">
<path fill-rule="evenodd" clip-rule="evenodd" d="M12.7753 2.23322C13.005 2.58711 13.1735 2.96344 13.2836 3.35018C13.3644 3.63423 13.7021 3.78402 13.9554 3.61961L18.2407 0.838163C19.7642 -0.150646 21.7815 0.253083 22.7466 1.73992L25.4612 5.92228C25.6216 6.16949 25.4628 6.50727 25.174 6.59361C24.7809 6.71118 24.397 6.88642 24.0344 7.12177C22.0349 8.41958 21.4407 11.0536 22.7073 13.0051C23.9739 14.9566 26.6217 15.4865 28.6212 14.1887C28.9838 13.9533 29.3002 13.674 29.5677 13.3628C29.7641 13.1343 30.1373 13.1268 30.2977 13.374L33.0123 17.5563C33.9773 19.0432 33.5247 21.0501 32.0012 22.0389L15.7952 32.5575C14.2718 33.5463 12.2544 33.1426 11.2894 31.6557L1.02366 15.8393C0.0586209 14.3525 0.511307 12.3456 2.03476 11.3568L6.32014 8.57531C6.57344 8.4109 6.57414 8.04148 6.34761 7.85201C6.03918 7.59404 5.76407 7.28691 5.53438 6.93302C4.26776 4.98155 4.86191 2.34748 6.86145 1.04967C8.86099 -0.248143 11.5087 0.281752 12.7753 2.23322Z" fill="#C2F7EA"/>
</svg>
