<svg width="167" height="168" viewBox="0 0 167 168" fill="none" xmlns="http://www.w3.org/2000/svg">
<path fill-rule="evenodd" clip-rule="evenodd" d="M27.0733 141.01C20.6717 139.294 16.8727 132.714 18.588 126.313L42.2216 38.1111C43.9369 31.7095 50.5169 27.9105 56.9185 29.6258L80.4211 35.9233C82.195 36.3986 83.8867 34.8467 83.9336 33.0108C83.9717 31.5221 84.1846 30.0142 84.587 28.5124C87.3342 18.2598 97.8726 12.1755 108.125 14.9226C118.378 17.6698 124.462 28.2082 121.715 38.4608C121.313 39.9626 120.743 41.3749 120.032 42.6832C119.154 44.2966 119.843 46.4865 121.617 46.9618L145.12 53.2593C151.522 54.9746 155.321 61.5547 153.605 67.9563L147.308 91.4586C146.833 93.2325 144.643 93.9215 143.029 93.0442C141.721 92.3329 140.309 91.7634 138.807 91.361C128.555 88.6138 118.016 94.6982 115.269 104.951C112.522 115.203 118.606 125.742 128.859 128.489C130.361 128.891 131.868 129.104 133.357 129.142C135.193 129.189 136.745 130.881 136.269 132.655L129.972 156.158C128.257 162.56 121.677 166.358 115.275 164.643L27.0733 141.01Z" fill="#3278DE"/>
<circle cx="59.8451" cy="81.2604" r="4.19958" fill="#0B2448"/>
<circle cx="85.0428" cy="81.2604" r="4.19958" fill="#0B2448"/>
<path d="M71.511 90.1261C72.0301 94.8566 73.5252 98.5253 78.9769 98.5253" stroke="#0B2448" stroke-width="6" stroke-linecap="round"/>
<path d="M140 86.106C146.41 89.4127 153.325 95.657 156.858 101.558C159.034 105.191 160.387 109.516 161.471 113.56C162.326 116.751 161.921 120.18 162.766 123.331" stroke="#3278DE" stroke-width="8" stroke-linecap="round"/>
<path d="M38.53 76.0001C35.1693 76.263 31.9925 77.1129 29.0002 78.5C25.5002 80.1225 22.7333 81.6821 19.5002 85C14.1734 90.4666 9.75264 97.5564 7.31123 104.863C5.4035 110.573 4.00014 116.604 4.00014 122.662" stroke="#3278DE" stroke-width="8" stroke-linecap="round"/>
<path d="M70.4656 117.72C70.5317 117.265 71.018 116.831 71.2554 116.569C72.2228 115.499 73.3524 114.661 74.3827 113.696C75.4477 112.699 76.4858 112.087 77.7366 111.569C80.2609 110.524 82.985 110.004 85.6809 109.96C89.2482 109.901 92.5451 110.417 96.0595 111.78C97.1526 112.204 98.1152 112.826 99.1485 113.352" stroke="#0B2448" stroke-width="6" stroke-linecap="round"/>
<path d="M94.2811 86.2769C93.779 87.482 92.8839 89.3621 92.5113 90.6402C92.3771 91.1005 92.2144 91.5799 92.2005 92.0694C92.1852 92.606 92.1812 93.135 92.2444 93.6701C92.4007 94.9944 93.0347 96.3347 94.2759 96.7753C94.7018 96.9264 95.0614 97.0342 95.7544 96.9491C96.4172 96.783 96.7813 96.5033 97.152 96.0555C98.0641 94.954 98.2485 93.3375 98.0798 91.9638C97.9046 90.5381 97.2058 89.1563 96.4668 87.9558C96.0237 87.2359 95.264 86.4793 94.5646 86.0371C94.47 85.9773 94.2762 86.0906 94.2811 86.2769ZM94.2811 86.2769C94.3047 87.1821 94.186 87.7738 94.0647 88.659C93.9508 89.4893 93.9305 90.3222 93.8077 91.1479C93.7039 91.8459 93.5302 92.5409 93.4766 93.2466C93.3915 94.3681 93.3462 95.7722 94.2675 96.5591C94.8452 97.0526 95.2541 96.2549 95.6208 95.8619C96.006 95.4491 96.4119 94.9248 96.598 94.3596C96.8754 93.5167 96.9809 92.6189 96.8864 91.7175C96.8024 90.9164 96.637 90.2208 96.3443 89.4804C96.158 89.0094 95.9827 88.4538 95.6785 88.0526C95.6168 87.9714 95.5582 87.884 95.5024 87.7978C95.3909 87.6252 95.4155 87.7979 95.3946 87.9339C95.1816 89.3196 94.8475 90.6811 94.7678 92.0919C94.7202 92.9341 94.7661 93.878 94.8671 94.6995C94.8936 94.9159 94.9055 95.1142 94.8514 95.3245C94.8115 95.4794 94.9826 95.2123 94.992 95.1931C95.2336 94.702 95.3942 94.1517 95.5067 93.6072C95.6431 92.9467 95.6435 92.2646 95.7175 91.5935C95.7745 91.0766 95.7214 90.5177 95.8105 90.0111" stroke="#A8D0F4" stroke-width="3" stroke-linecap="round"/>
<path d="M95.7011 96.6496C95.8334 96.5297 95.959 96.4019 96.0862 96.2767C96.3213 96.0454 96.553 95.796 96.7072 95.5012C96.9462 95.0446 97.1874 94.5673 97.3315 94.0711C97.548 93.3254 97.658 92.4636 97.5629 91.6893" stroke="white" stroke-width="2" stroke-linecap="round"/>
</svg>
