<svg width="17" height="17" viewBox="0 0 17 17" fill="none" xmlns="http://www.w3.org/2000/svg">
<path d="M13.765 12C13.4282 12.0013 13.0952 12.0706 12.7859 12.2038C12.4766 12.3369 12.1973 12.5312 11.965 12.775L5.86997 9.725C6.01991 9.27038 6.01991 8.77962 5.86997 8.325L11.975 5.22C12.4123 5.68081 13.0053 5.96258 13.6387 6.01053C14.2722 6.05848 14.9008 5.86919 15.4025 5.47945C15.9042 5.08971 16.243 4.52736 16.3532 3.90171C16.4633 3.27606 16.3369 2.63181 15.9985 2.09417C15.6601 1.55653 15.1339 1.16391 14.5222 0.992632C13.9104 0.821353 13.2568 0.883647 12.6885 1.16741C12.1201 1.45116 11.6775 1.93612 11.4468 2.528C11.216 3.11989 11.2136 3.77642 11.44 4.37L5.39497 7.445C5.0685 7.04572 4.62652 6.75719 4.12963 6.61896C3.63274 6.48073 3.10526 6.49957 2.61949 6.67288C2.13372 6.8462 1.71345 7.16552 1.41628 7.58706C1.11911 8.0086 0.959595 8.51174 0.959595 9.0275C0.959595 9.54326 1.11911 10.0464 1.41628 10.4679C1.71345 10.8895 2.13372 11.2088 2.61949 11.3821C3.10526 11.5554 3.63274 11.5743 4.12963 11.436C4.62652 11.2978 5.0685 11.0093 5.39497 10.61L11.425 13.645C11.3231 13.9186 11.2706 14.2081 11.27 14.5C11.27 14.9945 11.4166 15.4778 11.6913 15.8889C11.966 16.3 12.3565 16.6205 12.8133 16.8097C13.2701 16.9989 13.7727 17.0484 14.2577 16.952C14.7427 16.8555 15.1881 16.6174 15.5377 16.2678C15.8874 15.9181 16.1255 15.4727 16.2219 14.9877C16.3184 14.5028 16.2689 14.0001 16.0797 13.5433C15.8905 13.0865 15.57 12.696 15.1589 12.4213C14.7478 12.1466 14.2644 12 13.77 12H13.765ZM13.765 2C14.0616 2 14.3517 2.08797 14.5983 2.2528C14.845 2.41762 15.0373 2.65189 15.1508 2.92597C15.2643 3.20006 15.294 3.50166 15.2362 3.79264C15.1783 4.08361 15.0354 4.35088 14.8256 4.56066C14.6159 4.77044 14.3486 4.9133 14.0576 4.97118C13.7666 5.02906 13.465 4.99935 13.1909 4.88582C12.9169 4.77229 12.6826 4.58003 12.5178 4.33336C12.3529 4.08668 12.265 3.79667 12.265 3.5C12.265 3.10217 12.423 2.72064 12.7043 2.43934C12.9856 2.15804 13.3672 2 13.765 2ZM3.49997 10.5C3.2033 10.5 2.91329 10.412 2.66662 10.2472C2.41995 10.0824 2.22769 9.84811 2.11416 9.57403C2.00062 9.29994 1.97092 8.99834 2.0288 8.70736C2.08667 8.41639 2.22954 8.14912 2.43931 7.93934C2.64909 7.72956 2.91637 7.5867 3.20734 7.52882C3.49831 7.47094 3.79991 7.50065 4.074 7.61418C4.34809 7.72771 4.58236 7.91997 4.74718 8.16665C4.912 8.41332 4.99997 8.70333 4.99997 9C4.99997 9.39782 4.84194 9.77936 4.56063 10.0607C4.27933 10.342 3.8978 10.5 3.49997 10.5ZM13.765 16C13.4683 16 13.1783 15.912 12.9316 15.7472C12.6849 15.5824 12.4927 15.3481 12.3792 15.074C12.2656 14.7999 12.2359 14.4983 12.2938 14.2074C12.3517 13.9164 12.4945 13.6491 12.7043 13.4393C12.9141 13.2296 13.1814 13.0867 13.4723 13.0288C13.7633 12.9709 14.0649 13.0006 14.339 13.1142C14.6131 13.2277 14.8474 13.42 15.0122 13.6666C15.177 13.9133 15.265 14.2033 15.265 14.5C15.265 14.8978 15.1069 15.2794 14.8256 15.5607C14.5443 15.842 14.1628 16 13.765 16Z" fill="#3E3E3E"/>
</svg>
