<svg width="50" height="20" viewBox="0 0 50 20" fill="none" xmlns="http://www.w3.org/2000/svg">
<path d="M32.5605 11.8896C30.1738 11.896 28.6631 12.645 28.6631 13.9336C28.6631 15.2031 30.1738 15.9521 32.5605 15.9521C34.9536 15.9521 36.4707 15.2031 36.4834 13.9336C36.4707 12.645 34.9536 11.896 32.5605 11.8896ZM27.4951 10.7471H37.7021V10.0869H32.6367V7.85254H31.8496V10.0869H27.4951V10.7471ZM28.7266 6.0498H35.582V6.3418C35.582 7.22412 35.582 8.05566 35.2773 9.21094L36.0645 9.2998C36.3691 8.14453 36.3691 7.24951 36.3691 6.3418V5.37695H28.7266V6.0498ZM29.4629 13.9336C29.4502 13.0767 30.7007 12.5308 32.5605 12.5244C34.4331 12.5308 35.6646 13.0767 35.6709 13.9336C35.6646 14.7651 34.4331 15.3047 32.5605 15.3047C30.7007 15.3047 29.4502 14.7651 29.4629 13.9336ZM48.8199 11.2168H38.5748V11.8896H41.3297V15.9902H42.1549V11.8896H45.2271V15.9902H46.0269V11.8896H48.8199V11.2168ZM39.7808 7.6875C39.7745 9.1665 41.3424 10.0933 43.6783 10.0869C46.0142 10.0933 47.5758 9.1665 47.5758 7.6875C47.5758 6.20215 46.0142 5.2627 43.6783 5.2627C41.3424 5.2627 39.7745 6.20215 39.7808 7.6875ZM40.5933 7.6875C40.587 6.62744 41.8502 5.92285 43.6783 5.92285C45.5001 5.92285 46.7569 6.62744 46.7633 7.6875C46.7569 8.73486 45.5001 9.43311 43.6783 9.42676C41.8502 9.43311 40.587 8.73486 40.5933 7.6875Z" fill="black"/>
<g clip-path="url(#clip0_254_1716)">
<path d="M13.7649 13C13.4281 13.0013 13.0951 13.0706 12.7857 13.2038C12.4764 13.3369 12.1972 13.5312 11.9649 13.775L5.86985 10.725C6.01978 10.2704 6.01978 9.77962 5.86985 9.325L11.9749 6.22C12.4121 6.68081 13.0051 6.96258 13.6386 7.01053C14.2721 7.05848 14.9007 6.86919 15.4024 6.47945C15.9041 6.08971 16.2429 5.52736 16.3531 4.90171C16.4632 4.27606 16.3368 3.63181 15.9984 3.09417C15.66 2.55653 15.1338 2.16391 14.522 1.99263C13.9103 1.82135 13.2567 1.88365 12.6883 2.16741C12.12 2.45116 11.6774 2.93612 11.4467 3.528C11.2159 4.11989 11.2135 4.77642 11.4399 5.37L5.39485 8.445C5.06838 8.04572 4.6264 7.75719 4.12951 7.61896C3.63262 7.48073 3.10514 7.49957 2.61937 7.67288C2.1336 7.8462 1.71333 8.16552 1.41616 8.58706C1.11899 9.0086 0.959473 9.51174 0.959473 10.0275C0.959473 10.5433 1.11899 11.0464 1.41616 11.4679C1.71333 11.8895 2.1336 12.2088 2.61937 12.3821C3.10514 12.5554 3.63262 12.5743 4.12951 12.436C4.6264 12.2978 5.06838 12.0093 5.39485 11.61L11.4249 14.645C11.323 14.9186 11.2705 15.2081 11.2699 15.5C11.2699 15.9945 11.4165 16.4778 11.6912 16.8889C11.9659 17.3 12.3563 17.6205 12.8131 17.8097C13.27 17.9989 13.7726 18.0484 14.2576 17.952C14.7425 17.8555 15.188 17.6174 15.5376 17.2678C15.8873 16.9181 16.1254 16.4727 16.2218 15.9877C16.3183 15.5028 16.2688 15.0001 16.0796 14.5433C15.8903 14.0865 15.5699 13.696 15.1588 13.4213C14.7477 13.1466 14.2643 13 13.7699 13H13.7649ZM13.7649 3C14.0615 3 14.3515 3.08797 14.5982 3.2528C14.8449 3.41762 15.0371 3.65189 15.1507 3.92597C15.2642 4.20006 15.2939 4.50166 15.236 4.79264C15.1782 5.08361 15.0353 5.35088 14.8255 5.56066C14.6157 5.77044 14.3485 5.9133 14.0575 5.97118C13.7665 6.02906 13.4649 5.99935 13.1908 5.88582C12.9167 5.77229 12.6825 5.58003 12.5176 5.33336C12.3528 5.08668 12.2649 4.79667 12.2649 4.5C12.2649 4.10218 12.4229 3.72064 12.7042 3.43934C12.9855 3.15804 13.367 3 13.7649 3V3ZM3.49985 11.5C3.20318 11.5 2.91317 11.412 2.6665 11.2472C2.41982 11.0824 2.22756 10.8481 2.11403 10.574C2.0005 10.2999 1.9708 9.99834 2.02867 9.70736C2.08655 9.41639 2.22941 9.14912 2.43919 8.93934C2.64897 8.72956 2.91625 8.5867 3.20722 8.52882C3.49819 8.47094 3.79979 8.50065 4.07388 8.61418C4.34797 8.72771 4.58223 8.91997 4.74706 9.16665C4.91188 9.41332 4.99985 9.70333 4.99985 10C4.99985 10.3978 4.84182 10.7794 4.56051 11.0607C4.27921 11.342 3.89768 11.5 3.49985 11.5ZM13.7649 17C13.4682 17 13.1782 16.912 12.9315 16.7472C12.6848 16.5824 12.4926 16.3481 12.379 16.074C12.2655 15.7999 12.2358 15.4983 12.2937 15.2074C12.3516 14.9164 12.4944 14.6491 12.7042 14.4393C12.914 14.2296 13.1812 14.0867 13.4722 14.0288C13.7632 13.9709 14.0648 14.0006 14.3389 14.1142C14.613 14.2277 14.8472 14.42 15.0121 14.6666C15.1769 14.9133 15.2649 15.2033 15.2649 15.5C15.2649 15.8978 15.1068 16.2794 14.8255 16.5607C14.5442 16.842 14.1627 17 13.7649 17V17Z" fill="#3E3E3E"/>
</g>
<defs>
<clipPath id="clip0_254_1716">
<rect width="18" height="18" fill="white" transform="translate(0 1)"/>
</clipPath>
</defs>
</svg>
