<svg width="65" height="74" viewBox="0 0 65 74" fill="none" xmlns="http://www.w3.org/2000/svg">
<path fill-rule="evenodd" clip-rule="evenodd" d="M10.8205 55.2686C8.31137 54.5963 6.82236 52.0172 7.49467 49.5081L16.7578 14.9376C17.4301 12.4285 20.0092 10.9395 22.5183 11.6118L31.7301 14.0801C32.4254 14.2664 33.0884 13.6581 33.1068 12.9386C33.1217 12.3551 33.2052 11.7641 33.3629 11.1754C34.4397 7.15693 38.5702 4.77218 42.5887 5.84893C46.6072 6.92568 48.9919 11.0562 47.9152 15.0747C47.7574 15.6633 47.5342 16.2169 47.2554 16.7297C46.9115 17.362 47.1816 18.2203 47.8769 18.4066L57.0888 20.875C59.5979 21.5473 61.0869 24.1263 60.4146 26.6354L57.9463 35.8471C57.76 36.5424 56.9017 36.8124 56.2693 36.4686C55.7566 36.1898 55.203 35.9666 54.6144 35.8089C50.5959 34.7321 46.4654 37.1169 45.3887 41.1354C44.3119 45.1539 46.6967 49.2844 50.7152 50.3611C51.3038 50.5188 51.8948 50.6023 52.4782 50.6172C53.1978 50.6356 53.8061 51.2987 53.6198 51.994L51.1514 61.2059C50.4791 63.715 47.9001 65.2041 45.391 64.5317L10.8205 55.2686Z" fill="#3278DE"/>
<path d="M25.3116 31.8496C25.3116 32.7587 24.5746 33.4957 23.6656 33.4957C22.7565 33.4957 22.0195 32.7587 22.0195 31.8496C22.0195 30.9406 22.7565 30.2036 23.6656 30.2036C24.5746 30.2036 25.3116 30.9406 25.3116 31.8496Z" fill="#0B2448"/>
<path d="M35.1878 31.8496C35.1878 32.7587 34.4508 33.4957 33.5418 33.4957C32.6327 33.4957 31.8958 32.7587 31.8958 31.8496C31.8958 30.9406 32.6327 30.2036 33.5418 30.2036C34.4508 30.2036 35.1878 30.9406 35.1878 31.8496Z" fill="#0B2448"/>
<path fill-rule="evenodd" clip-rule="evenodd" d="M28.1094 34.1556C28.755 34.0847 29.3357 34.5506 29.4065 35.1961C29.5033 36.0776 29.6756 36.6358 29.9199 36.9647C30.0992 37.2062 30.3992 37.4406 31.164 37.4406C31.8134 37.4406 32.3398 37.967 32.3398 38.6164C32.3398 39.2658 31.8134 39.7923 31.164 39.7923C29.792 39.7923 28.7305 39.3077 28.0318 38.3667C27.398 37.5131 27.1756 36.4253 27.0689 35.4527C26.998 34.8071 27.4639 34.2264 28.1094 34.1556Z" fill="#0B2448"/>
<path d="M8 72C7.18446 67.1843 7.81924 61.9954 9.67653 59.3502C10.8202 57.7213 12.6993 56.7122 14.5327 55.9057C15.9797 55.2692 17.6728 54.8022 19.6405 55.0234" stroke="#6DA4F4" stroke-width="4" stroke-linecap="round"/>
<path d="M4.80908 46C5.20174 42.5154 7.08204 38.5459 9.51726 36.3046C11.0168 34.9244 13.0728 33.9032 15.0353 33.0399C16.5842 32.3586 18.3286 31.769 20.1689 31.655" stroke="#3278DE" stroke-width="4" stroke-linecap="round"/>
<path d="M22.127 72C21.8094 67.9202 22.8871 63.4426 24.8752 61.0772C26.0994 59.6206 27.9559 58.6552 29.7508 57.8656C31.1673 57.2425 32.7991 56.7512 34.6243 56.8345" stroke="#6DA4F4" stroke-width="4" stroke-linecap="round"/>
<path d="M53.5 33C57.6667 34.5 64.7 40.4 59.5 52" stroke="#3278DE" stroke-width="4" stroke-linecap="round"/>
</svg>
