<svg width="18" height="18" viewBox="0 0 18 18" fill="none" xmlns="http://www.w3.org/2000/svg">
<path fill-rule="evenodd" clip-rule="evenodd" d="M4.04606 16.3125C6.41756 16.3125 11.5864 16.3125 13.9579 16.2962C14.4608 16.2962 14.9401 16.0661 15.2573 15.6707C15.5746 15.2758 15.6949 14.7583 15.5852 14.2633V14.2622C14.9063 11.2511 12.2141 9.00004 9.00008 9.00004C5.78768 9.00004 3.09608 11.2494 2.39918 14.2544L2.39859 14.2572C2.28726 14.7595 2.40931 15.2826 2.72994 15.6814C3.04998 16.0808 3.53432 16.3126 4.04619 16.3126L4.04606 16.3125ZM4.04606 15.1875C3.87503 15.1875 3.7136 15.1105 3.60672 14.9772C3.50096 14.8455 3.45994 14.6728 3.49534 14.5075C4.07812 12.0004 6.32134 10.1251 9.00004 10.1251C11.6775 10.1251 13.9214 11.9999 14.4872 14.5075C14.5226 14.6689 14.4833 14.8377 14.3797 14.967C14.2762 15.0958 14.1193 15.1712 13.9539 15.1712H13.9522C11.5801 15.1875 6.41592 15.1875 4.04607 15.1875L4.04606 15.1875ZM9.02696 1.6875C7.13636 1.6875 5.60186 3.2226 5.60186 5.1132C5.60186 7.0038 7.13636 8.5383 9.02696 8.5383C10.9176 8.5383 12.4527 7.0038 12.4527 5.1132C12.4527 3.2226 10.9176 1.6875 9.02696 1.6875ZM9.02696 2.8125C10.2965 2.8125 11.3277 3.84299 11.3277 5.1132C11.3277 6.38276 10.2966 7.4133 9.02696 7.4133C7.75733 7.4133 6.72686 6.38282 6.72686 5.1132C6.72686 3.84306 7.7574 2.8125 9.02696 2.8125Z" fill="#414141"/>
</svg>
